<svg xmlns="http://www.w3.org/2000/svg" width="640" height="360" viewBox="0 0 640 360"><rect width="640" height="360" rx="22" fill="#101722"/><text x="28" y="42" fill="#dfe7f4" font-family="Segoe UI" font-size="22" font-weight="700">BRUSH LAB</text><g stroke="#334459" fill="#1b2634"><rect x="28" y="66" width="180" height="124" rx="14"/><rect x="230" y="66" width="180" height="124" rx="14"/><rect x="432" y="66" width="180" height="124" rx="14"/><rect x="28" y="210" width="180" height="124" rx="14"/><rect x="230" y="210" width="180" height="124" rx="14"/><rect x="432" y="210" width="180" height="124" rx="14"/></g><g fill="none" stroke-linecap="round"><path d="M54 142 Q118 88 182 142" stroke="#73d4ff" stroke-width="16"/><path d="M256 148 L382 105" stroke="#c27bff" stroke-width="18"/><path d="M458 146 C508 93 568 94 594 143" stroke="#ff8aa7" stroke-width="12"/><path d="M54 278 C100 224 160 324 188 274" stroke="#f6d56f" stroke-width="10"/><path d="M256 278 L382 278" stroke="#9ef2c2" stroke-width="7" stroke-dasharray="2 16"/><circle cx="522" cy="274" r="35" stroke="#79a7ff" stroke-width="12"/></g></svg>